<svg width="214" height="122" viewBox="0 0 214 122" fill="none" xmlns="http://www.w3.org/2000/svg">
<path fill-rule="evenodd" clip-rule="evenodd" d="M51.8658 1.39051C50.7251 2.34441 38.7922 13.5552 25.3482 26.3024C7.24083 43.4721 0.749199 49.9508 0.305813 51.295C-0.667579 54.2433 0.656087 56.595 4.65955 59.0302C13.9252 64.6669 14.1823 64.8765 15.7415 68.0635C16.8248 70.2772 17.2276 71.9024 17.1983 73.938C17.1761 75.4858 14.9484 85.9939 12.2485 97.2897C9.5487 108.586 7.33936 118.487 7.33936 119.293C7.33936 121.131 8.45675 121.597 10.1193 120.452C10.8236 119.967 22.7691 108.781 36.6651 95.5946C62.7853 70.8088 63.6353 69.8652 62.8102 66.5796C62.3479 64.7379 60.3643 63.0336 55.2462 60.0831C48.3111 56.0845 45.777 52.7085 45.777 47.4658C45.777 46.0778 47.9695 35.626 50.6493 24.2387C53.3292 12.8514 55.5217 2.79863 55.5217 1.89886C55.5217 -0.447996 54.2722 -0.621779 51.8658 1.39051ZM84.4555 23.8554C84.1464 24.066 82.3441 27.9666 80.4504 32.5234C78.4376 37.367 76.5433 41.1328 75.8893 41.5914C74.8477 42.3206 74.9544 42.3748 77.4306 42.3748C79.824 42.3748 79.9881 42.3 79.0699 41.6282C78.1501 40.9558 78.1155 40.6597 78.7175 38.6506L79.3855 36.4196H83.0669C86.4857 36.4196 86.7926 36.5176 87.3757 37.7985C88.3377 39.9099 88.1379 41.2731 86.7861 41.8166C85.9259 42.162 87.0005 42.3055 90.4404 42.3038C94.1818 42.3022 95.0443 42.1717 94.1564 41.7413C92.8571 41.1123 92.804 41.0099 88.7064 31.2766C85.4857 23.6275 85.2903 23.2859 84.4555 23.8554ZM163.38 23.9864C158.837 24.6307 156.219 27.9877 156.219 33.1714C156.219 39.2272 159.348 42.3753 165.366 42.3737C171.63 42.3726 174.5 40.0084 175.005 34.4306C175.347 30.6599 173.98 26.8005 171.796 25.3691C170.036 24.2165 166.202 23.5863 163.38 23.9864ZM98.155 24.3502C99.3552 24.5814 99.3731 24.707 99.3731 32.9115C99.3731 40.2704 99.2632 41.3023 98.4257 41.7901C97.6835 42.2221 98.0061 42.3379 99.9145 42.3239C101.914 42.3093 102.132 42.2183 101.133 41.8166C99.9534 41.3424 99.9145 41.0922 99.9145 34.0008C99.9145 28.4863 100.082 26.6819 100.591 26.703C100.964 26.7182 103.811 30.2507 106.919 34.553C110.61 39.6619 112.911 42.3748 113.551 42.3748C114.458 42.3748 114.532 41.7051 114.532 33.4816C114.532 25.4676 114.625 24.5641 115.479 24.341C116 24.2051 115.208 24.0985 113.72 24.1044C112.231 24.1104 111.561 24.2208 112.231 24.3502C113.406 24.5765 113.449 24.7958 113.449 30.5024C113.449 33.7566 113.266 36.4142 113.043 36.4083C112.819 36.4018 110.604 33.6002 108.12 30.1825L103.602 23.968L100.27 24.0416C98.4365 24.0822 97.4848 24.2208 98.155 24.3502ZM117.238 26.1335C117.238 28.4257 118.126 29.1414 118.419 27.0858C118.609 25.7513 121.163 24.2376 122.415 24.7178C123.045 24.9598 123.194 26.5753 123.194 33.1719C123.194 41.1231 123.163 41.3391 121.975 41.8166C121.102 42.1679 122.058 42.3136 125.359 42.3325C129.41 42.3558 129.799 42.2768 128.607 41.6748C127.27 40.9986 127.252 40.9006 127.103 33.1985C127.019 28.8539 127.176 25.1823 127.459 24.8997C128.377 23.9815 131.733 25.5088 132.319 27.1112C132.819 28.4771 132.855 28.4235 132.896 26.2689L132.938 23.968H125.088H117.238V26.1335ZM136.322 24.5527C137.157 25.0394 137.269 26.0599 137.269 33.1714C137.269 40.2829 137.157 41.3034 136.322 41.7901C135.62 42.1988 136.425 42.3369 139.435 42.3217C142.792 42.3049 143.281 42.1983 142.255 41.704C141.111 41.1534 141.028 40.8113 141.173 37.2745L141.33 33.4421H145.119H148.909L149.076 36.3909C149.287 40.1031 148.896 41.6867 147.69 42.0018C147.169 42.1376 148.571 42.2703 150.804 42.2957C153.803 42.3298 154.617 42.1977 153.917 41.7901C153.081 41.3034 152.969 40.2829 152.969 33.1714C152.969 26.0599 153.081 25.0394 153.917 24.5527C154.619 24.1434 153.814 24.0054 150.804 24.0189C147.776 24.0319 147.06 24.1634 147.986 24.5354C149.136 24.9966 149.217 25.3101 149.069 28.6969L148.909 32.3593H145.119H141.33L141.169 28.6969C141.021 25.3101 141.103 24.9966 142.252 24.5354C143.179 24.1634 142.463 24.0319 139.435 24.0189C136.424 24.0054 135.62 24.1434 136.322 24.5527ZM178.549 24.341C179.401 24.5641 179.497 25.4525 179.497 33.1714C179.497 40.8903 179.401 41.7787 178.549 42.0018C178.028 42.1376 178.82 42.2443 180.309 42.2383C181.797 42.2324 182.468 42.1219 181.797 41.9925C180.601 41.7625 180.579 41.6179 180.579 33.9136C180.579 29.5994 180.762 26.1871 180.985 26.3311C181.209 26.4746 183.949 30.131 187.076 34.4555C190.568 39.2857 193.126 42.3293 193.708 42.3466C194.573 42.372 194.655 41.599 194.655 33.4421V24.5094H195.925C197.47 24.5094 198.191 25.3106 201.075 30.2252C203.095 33.6678 203.317 34.4025 203.317 37.6421C203.317 40.4956 203.122 41.3521 202.37 41.7901C201.666 42.1999 202.465 42.3417 205.483 42.3417C208.5 42.3417 209.299 42.1999 208.595 41.7901C207.834 41.3467 207.648 40.4837 207.648 37.3919C207.648 33.9851 207.873 33.1389 209.616 29.9751C210.699 28.011 212.081 25.8563 212.688 25.1861L213.792 23.968L211.397 24.0021C209.409 24.0308 209.209 24.1201 210.223 24.5278L211.445 25.0188L209.561 28.4181C208.525 30.288 207.381 31.8179 207.02 31.8179C206.325 31.8179 202.782 26.3116 202.778 25.2256C202.777 24.8754 203.202 24.4774 203.723 24.341C204.244 24.2051 201.625 24.0985 197.903 24.1044C194.181 24.1104 191.684 24.2208 192.354 24.3502C193.529 24.5765 193.572 24.7958 193.572 30.5024C193.572 33.7566 193.454 36.4196 193.31 36.4196C193.166 36.4196 190.974 33.618 188.441 30.1938L183.834 23.968L180.718 24.0308C179.004 24.0655 178.028 24.2051 178.549 24.341ZM168.511 25.3258C171.715 27.5698 171.185 40.2109 167.833 41.4972C166.322 42.077 164.083 41.8653 162.89 41.03C159.729 38.8158 160.111 26.1866 163.379 24.8716C164.787 24.3053 167.382 24.5354 168.511 25.3258ZM84.8919 31.9533C85.6379 33.6651 86.1419 35.2492 86.0114 35.4722C85.8815 35.6953 84.5854 35.8783 83.1318 35.8783C81.6782 35.8783 80.3822 35.6953 80.2523 35.4722C79.9464 34.9487 82.5991 28.8404 83.1318 28.8404C83.3538 28.8404 84.1458 30.2415 84.8919 31.9533ZM131.557 48.8842C130.714 49.1988 128.452 54.0966 122.152 69.2508C117.59 80.225 113.29 90.3 112.596 91.6399L111.334 94.0761L111.3 89.7451C111.282 87.363 111.068 85.1011 110.826 84.7189C110.098 83.5712 108.576 84.5722 108.576 86.1991C108.576 88.7982 106.311 92.2744 103.726 93.6413C101.709 94.7078 100.568 94.8881 95.8271 94.8881C91.2736 94.8881 90.2271 94.7355 89.9569 94.0317C89.7761 93.5607 89.6283 84.3497 89.6283 73.5628C89.6283 58.7075 89.7924 53.735 90.3051 53.0626C90.6829 52.5672 91.9389 52.1027 93.1473 52.0118C94.8975 51.8802 95.3128 51.6409 95.3128 50.7661C95.3128 49.7223 94.9517 49.6833 85.2973 49.6833C75.643 49.6833 75.2819 49.7223 75.2819 50.7661C75.2819 51.5099 75.7053 51.9073 76.6353 52.0361C79.3969 52.4178 79.3422 51.9885 79.3422 73.3349C79.3422 93.4908 79.1311 95.8799 77.4057 95.2178C76.2114 94.7593 75.0112 95.4376 75.0112 96.5702C75.0112 97.5593 75.7957 97.595 97.4951 97.595C117.261 97.595 120.018 97.4938 120.3 96.7597C120.755 95.5724 120.172 95.1929 118.107 95.3321C114.435 95.5795 114.366 93.421 117.805 85.8201L119.336 82.4365H128.31H137.283L138.664 85.5494C141.991 93.0496 141.79 95.1588 137.745 95.1588C135.736 95.1588 135.375 95.3239 135.375 96.2416C135.375 97.2859 135.784 97.3297 146.892 97.4705C156.924 97.5977 158.451 97.5073 158.733 96.7705C159.128 95.7419 158.885 95.4641 157.33 95.1648C154.746 94.6667 154.006 94.2065 153.129 92.5488C152.629 91.6025 148.297 81.4723 143.503 70.0385C134.493 48.5481 134.14 47.9222 131.557 48.8842ZM165.121 50.0011C164.578 50.8792 165.463 51.4801 167.586 51.675L169.481 51.8488L169.623 73.1698C169.724 88.4582 169.591 94.7003 169.15 95.2308C168.813 95.6379 167.694 95.9709 166.663 95.9709C165.405 95.9709 164.863 96.1934 165.015 96.6476C165.297 97.4959 177.867 97.6286 177.882 96.7829C177.887 96.4852 176.932 96.1674 175.759 96.077C174.586 95.9866 173.36 95.5925 173.035 95.201C172.252 94.2574 172.482 56.1663 173.271 56.2101C173.569 56.2264 180.711 65.6057 189.143 77.0531L204.474 97.8657L206.867 98.0303L209.26 98.1954L209.402 75.0218L209.543 51.8488L211.591 51.5781C212.718 51.4292 213.631 51.1245 213.621 50.9014C213.611 50.6784 213.603 50.2442 213.603 49.9367C213.603 49.5761 211.351 49.4321 207.242 49.5306C202.016 49.6562 200.881 49.8284 200.881 50.4954C200.881 51.0801 201.6 51.3535 203.45 51.4726C205.575 51.609 206.068 51.8423 206.309 52.826C206.884 55.1777 206.323 81.5254 205.694 81.7349C205.363 81.8448 199.76 74.6299 193.242 65.7015L181.391 49.4689L173.438 49.4408C168.266 49.4224 165.357 49.6184 165.121 50.0011ZM132.228 70.2631C134.108 74.6965 135.645 78.6398 135.645 79.0269C135.645 79.5694 133.919 79.7296 128.066 79.7296C123.897 79.7296 120.487 79.5466 120.487 79.3236C120.488 79.1005 121.907 75.5069 123.642 71.3383C125.376 67.1697 126.96 63.3124 127.16 62.7667C127.361 62.221 127.814 61.8707 128.168 61.9888C128.522 62.1062 130.349 65.8298 132.228 70.2631Z" fill="black"/>
</svg>
